<?xml version="1.0" encoding="UTF-8" standalone="no"?>
<!-- Created with Inkscape (http://www.inkscape.org/) -->

<svg
   xmlns:dc="http://purl.org/dc/elements/1.1/"
   xmlns:cc="http://creativecommons.org/ns#"
   xmlns:rdf="http://www.w3.org/1999/02/22-rdf-syntax-ns#"
   xmlns:svg="http://www.w3.org/2000/svg"
   xmlns="http://www.w3.org/2000/svg"
   xmlns:xlink="http://www.w3.org/1999/xlink"
   xmlns:sodipodi="http://sodipodi.sourceforge.net/DTD/sodipodi-0.dtd"
   xmlns:inkscape="http://www.inkscape.org/namespaces/inkscape"
   width="127.07106mm"
   height="126.59592mm"
   viewBox="0 0 450.25178 448.56823"
   id="svg2"
   version="1.1"
   inkscape:version="0.91 r13725"
   sodipodi:docname="vectorlog.svg">
  <defs
     id="defs4" />
  <sodipodi:namedview
     id="base"
     pagecolor="#ffffff"
     bordercolor="#666666"
     borderopacity="1.0"
     inkscape:pageopacity="0.0"
     inkscape:pageshadow="2"
     inkscape:zoom="0.47529804"
     inkscape:cx="559.39151"
     inkscape:cy="331.74613"
     inkscape:document-units="px"
     inkscape:current-layer="layer1"
     showgrid="false"
     inkscape:window-width="1600"
     inkscape:window-height="877"
     inkscape:window-x="-8"
     inkscape:window-y="-8"
     inkscape:window-maximized="1"
     fit-margin-top="20"
     fit-margin-left="20"
     fit-margin-right="20"
     fit-margin-bottom="20" />
  <metadata
     id="metadata7">
    <rdf:RDF>
      <cc:Work
         rdf:about="">
        <dc:format>image/svg+xml</dc:format>
        <dc:type
           rdf:resource="http://purl.org/dc/dcmitype/StillImage" />
        <dc:title></dc:title>
      </cc:Work>
    </rdf:RDF>
  </metadata>
  <g
     inkscape:label="Calque 1"
     inkscape:groupmode="layer"
     id="layer1"
     transform="translate(-200.8642,-291.56052)">
    <path
       style="fill:#000000"
       d=""
       id="path3377"
       inkscape:connector-curvature="0" />
    <path
       style="fill:#000000"
       d=""
       id="path3375"
       inkscape:connector-curvature="0" />
    <path
       style="fill:#ffffff;fill-opacity:1"
       d="m 36.072266,35.435547 0,145.966793 146.472654,0 0,-145.966793 -146.472654,0 z m 39.470703,27.701172 c 4.465812,0.07766 11.542611,0.958677 17.796875,2.251953 1.9727,0.40792 9.969246,3.053044 12.062496,3.990234 10.26767,4.59701 17.9827,9.903727 25.94727,17.841797 14.45817,14.410097 22.10743,30.123247 24.25781,49.835937 0.69454,6.3669 0.68916,10.86778 -0.0117,11.13672 -0.28763,0.11037 -4.21199,0.20117 -8.7207,0.20117 -6.16297,0 -8.27897,-0.10338 -8.52539,-0.41406 -0.18025,-0.2273 -0.42953,-2.4658 -0.55469,-4.97461 -0.34587,-6.93293 -1.63826,-12.87716 -4.2793,-19.68555 -2.85081,-7.34918 -7.08478,-14.07105 -12.93554,-20.5332 C 108.92171,89.910449 93.136866,82.269355 76.441406,81.421875 c -3.00063,-0.15232 -4.741307,-0.377938 -4.960937,-0.642578 -0.21667,-0.26108 -0.30655,-3.483981 -0.25,-8.962891 l 0.08789,-8.554687 2.480469,-0.107422 c 0.52139,-0.02288 1.106168,-0.02867 1.744141,-0.01758 z m -2.533203,28.148437 c 0.798806,-0.0066 2.020781,0.06389 3.904296,0.208985 6.588451,0.5075 11.383951,1.545228 16.400391,3.548828 12.299267,4.91242 23.824767,15.812601 29.580077,27.976561 1.62239,3.42897 3.36745,8.41489 3.83594,10.95899 0.82406,4.47537 1.29868,8.87808 1.21484,11.27539 l -0.0937,2.64453 -8.85156,0.0879 c -6.92181,0.0689 -8.87748,-0.002 -8.9668,-0.33008 -0.0628,-0.23028 -0.35135,-2.42805 -0.64258,-4.88281 -0.52256,-4.40483 -0.66171,-5.01323 -1.9746,-8.59571 -1.31428,-3.58626 -3.71001,-7.85542 -5.8418,-10.41406 -1.08167,-1.29826 -4.857711,-5.07104 -6.125001,-6.11914 -2.88471,-2.38577 -7.763983,-4.9631 -12.064453,-6.37305 -3.27787,-1.07468 -4.03921,-1.2269 -8.38086,-1.67968 l -3.685547,-0.38477 -0.08789,-8.62891 c -0.075,-7.344685 -0.01444,-8.690341 0.408203,-9.041011 0.19568,-0.1624 0.572287,-0.245304 1.371094,-0.251953 z m 9.849609,32.974614 c 2.9783,0 3.747576,0.11674 5.316406,0.81054 2.30312,1.01856 4.950603,3.68839 6.070313,6.12305 0.73633,1.60112 0.840863,2.27481 0.845703,5.46289 0.005,3.3533 -0.06616,3.76726 -0.908203,5.30664 -1.27538,2.33165 -3.52255,4.53385 -6.03711,5.91602 -2.38879,1.31305 -4.086875,1.46137 -7.947265,0.69336 -3.49575,-0.69546 -6.883891,-3.27158 -8.457031,-6.43165 -0.664891,-1.33555 -0.753907,-2.00817 -0.753907,-5.64843 0,-3.73225 0.07811,-4.28697 0.808594,-5.7168 1.127,-2.20591 3.598462,-4.63277 5.757813,-5.6543 1.605939,-0.75973 2.237567,-0.86132 5.304687,-0.86132 z"
       id="rect3389"
       transform="translate(235.65805,326.99308)"
       inkscape:connector-curvature="0" />
    <path
       style="fill:#ffffff;fill-opacity:1"
       d="m 433.51181,362.42667 0,145.9668 146.47265,0 0,-145.9668 -146.47265,0 z m 75.25586,28.72852 c 2.03627,0 3.79906,0.52216 5.2871,1.56641 1.51416,1.01813 2.72692,2.40128 3.64063,4.15039 l 18.875,36.14453 c 0.54823,1.04424 0.96674,2.01083 1.25391,2.89844 0.31327,0.8615 0.46875,1.89286 0.46875,3.09374 l 0,11.27735 c 0,2.84557 -0.37769,5.58594 -1.13477,8.22265 -0.73097,2.61062 -1.77529,5.06595 -3.13281,7.36329 -1.33141,2.29734 -2.93677,4.38403 -4.81641,6.26367 -1.87964,1.87964 -3.96828,3.48694 -6.26562,4.81836 -2.29734,1.35752 -4.76563,2.40184 -7.40235,3.13281 -2.61061,0.75708 -5.33802,1.13477 -8.18359,1.13477 -2.84557,0 -5.58594,-0.37769 -8.22266,-1.13477 -2.63672,-0.73097 -5.105,-1.77529 -7.40234,-3.13281 -2.27123,-1.33142 -4.35988,-2.93872 -6.26563,-4.81836 -1.87964,-1.87964 -3.49795,-3.96633 -4.85546,-6.26367 -1.33142,-2.29734 -2.37574,-4.75267 -3.13282,-7.36329 -0.73097,-2.63671 -1.0957,-5.37708 -1.0957,-8.22265 0,-0.91372 -0.013,-1.78765 -0.0391,-2.62305 -0.0261,-0.8615 -2e-4,-1.69852 0.0781,-2.50781 0.10443,-0.80929 0.27481,-1.60549 0.50977,-2.38867 0.26106,-0.78319 0.66466,-1.56643 1.21289,-2.34961 -1.17478,-1.6969 -1.76172,-3.57629 -1.76172,-5.63867 0,-1.35752 0.26108,-2.62406 0.7832,-3.79883 0.52213,-1.20088 1.22763,-2.24521 2.11524,-3.13281 0.88761,-0.88761 1.91897,-1.59116 3.09375,-2.11329 1.20088,-0.52212 2.47842,-0.7832 3.83594,-0.7832 l 10.02539,0 c -0.96593,-0.96593 -1.93252,-1.91955 -2.89844,-2.85937 -0.93982,-0.93982 -1.87854,-1.8915 -2.81836,-2.85743 -0.91372,-0.91371 -1.63218,-1.97099 -2.1543,-3.17187 -0.49601,-1.22699 -0.74414,-2.49352 -0.74414,-3.79883 0,-1.35752 0.26108,-2.63701 0.7832,-3.83789 0.52213,-1.20088 1.22763,-2.2452 2.11524,-3.13281 0.88761,-0.88761 1.93193,-1.58016 3.13281,-2.07617 1.20088,-0.52213 2.48037,-0.78321 3.83789,-0.78321 0.49602,0 1.00522,0.0389 1.52735,0.11719 -0.0783,-0.49602 -0.11914,-1.00327 -0.11914,-1.52539 0,-1.35752 0.26108,-2.63701 0.7832,-3.83789 0.52212,-1.20088 1.22762,-2.24521 2.11523,-3.13281 0.88761,-0.88761 1.93193,-1.59312 3.13281,-2.11524 1.20089,-0.52212 2.48038,-0.7832 3.8379,-0.7832 z m 0,5.63867 c -0.60045,0 -1.16148,0.11856 -1.6836,0.35352 -0.49601,0.20885 -0.94044,0.5088 -1.33203,0.90039 -0.36549,0.36548 -0.66543,0.80795 -0.90039,1.33008 -0.20885,0.52212 -0.3125,1.07214 -0.3125,1.64648 0,0.28717 0.0259,0.58712 0.0781,0.90039 0.0522,0.28717 0.14291,0.5612 0.27344,0.82227 l 10.69141,21.65429 3.01367,6.10938 0.0391,0.0391 -32.42382,0 c -0.57434,0 -1.12241,0.11661 -1.64454,0.35156 -0.49601,0.20885 -0.93848,0.5088 -1.33007,0.90039 -0.36549,0.3916 -0.66739,0.84897 -0.90235,1.3711 -0.20885,0.49601 -0.3125,1.03113 -0.3125,1.60547 0,0.57433 0.10365,1.1224 0.3125,1.64453 0.23496,0.49601 0.53686,0.94044 0.90235,1.33203 0.36548,0.39159 0.79499,0.7045 1.29101,0.93945 0.52212,0.20885 1.08315,0.31445 1.6836,0.31445 l 15.50781,0 c 1.56637,0 3.0292,0.29995 4.38672,0.9004 1.35751,0.57433 2.54436,1.37053 3.5625,2.38867 1.01814,1.01814 1.81433,2.21794 2.38867,3.60156 0.60044,1.35752 0.90039,2.82035 0.90039,4.38672 0,1.54026 -0.29995,3.00114 -0.90039,4.38476 -0.57434,1.35752 -1.37053,2.54632 -2.38867,3.56446 -1.01814,1.01814 -2.21989,1.82729 -3.60352,2.42773 -1.35752,0.57434 -2.80544,0.86133 -4.3457,0.86133 -1.54026,0 -3.0031,-0.28699 -4.38672,-0.86133 -1.35752,-0.60044 -2.54436,-1.40959 -3.5625,-2.42773 -1.01814,-1.01814 -1.82729,-2.20694 -2.42774,-3.56446 -0.60044,-1.38362 -0.90039,-2.8445 -0.90039,-4.38476 l 0,-4.22852 c 0,-0.57433 -0.11856,-1.12436 -0.35351,-1.64648 -0.20885,-0.52212 -0.5088,-0.96459 -0.90039,-1.33008 -0.36549,-0.39159 -0.80991,-0.69154 -1.33203,-0.90039 -0.52213,-0.23496 -1.0702,-0.35352 -1.64453,-0.35352 -0.60045,0 -1.16148,0.11856 -1.6836,0.35352 -0.49602,0.20885 -0.92553,0.5088 -1.29101,0.90039 -0.36549,0.39159 -0.66739,0.84702 -0.90235,1.36914 -0.20885,0.49602 -0.3125,1.03309 -0.3125,1.60742 l 0,4.22852 c 0,3.49822 0.66664,6.78666 1.99805,9.86719 1.33141,3.05441 3.13111,5.73 5.40234,8.02734 2.29734,2.29734 4.98784,4.09899 8.06836,5.4043 3.08053,1.33141 6.36897,1.99804 9.86719,1.99804 3.49822,0 6.77566,-0.66663 9.83008,-1.99804 3.08052,-1.30531 5.76906,-3.10696 8.0664,-5.4043 2.29734,-2.29734 4.09899,-4.97293 5.4043,-8.02734 1.33141,-3.08053 1.99609,-6.36897 1.99609,-9.86719 l 0,-11.27735 c 0,-0.62654 -0.0907,-1.17462 -0.27343,-1.64453 -0.15664,-0.46991 -0.37885,-0.96615 -0.66602,-1.48828 l -19.07031,-36.53711 c -0.39159,-0.75708 -0.91375,-1.36993 -1.56641,-1.83984 -0.62654,-0.46991 -1.39683,-0.70508 -2.31054,-0.70508 z m -11.27735,11.27734 c -0.57433,0 -1.12241,0.11856 -1.64453,0.35352 -0.49602,0.20885 -0.94044,0.5088 -1.33203,0.90039 -0.39159,0.36549 -0.7045,0.80991 -0.93945,1.33203 -0.20885,0.49602 -0.31446,1.03114 -0.31446,1.60547 0,1.14867 0.41851,2.14117 1.25391,2.97656 l 12.49219,12.49024 7.08789,0 -3.13281,-6.34375 c -0.31328,-0.62655 -0.54845,-1.17462 -0.70508,-1.64453 -0.15664,-0.46991 -0.44363,-0.97912 -0.86133,-1.52735 -0.23496,-0.33938 -0.47012,-0.62637 -0.70508,-0.86133 -0.23495,-0.23495 -0.47012,-0.45716 -0.70508,-0.66601 -0.23495,-0.23496 -0.48308,-0.45521 -0.74414,-0.66406 -0.26106,-0.23496 -0.5351,-0.49604 -0.82226,-0.78321 l -5.95313,-5.95312 c -0.39159,-0.39159 -0.84702,-0.69154 -1.36914,-0.90039 -0.52212,-0.20885 -1.05724,-0.31446 -1.60547,-0.31446 z"
       id="rect3389-9"
       inkscape:connector-curvature="0" />
    <path
       style="fill:#ffffff;fill-opacity:1"
       d="m 36.072266,196.30273 0,145.9668 308.519534,0 0,-145.9668 -308.519534,0 z m 117.044924,33.57032 c 4.46581,0.0777 11.54261,0.95867 17.79687,2.25195 1.9727,0.40792 9.96925,3.05304 12.0625,3.99023 10.26767,4.59701 17.98465,9.90373 25.94922,17.8418 14.45817,14.4101 22.10548,30.12325 24.25586,49.83594 0.69454,6.3669 0.69112,10.86778 -0.01,11.13672 -0.28763,0.11037 -4.212,0.20117 -8.72071,0.20117 -6.16297,0 -8.27897,-0.10338 -8.52539,-0.41406 -0.18025,-0.2273 -0.43148,-2.4658 -0.55664,-4.97461 -0.34587,-6.93293 -1.63631,-12.87716 -4.27734,-19.68555 -2.85082,-7.34918 -7.08674,-14.07105 -12.9375,-20.5332 -11.65837,-12.87666 -27.44322,-20.51776 -44.13868,-21.36524 -3.00063,-0.15232 -4.7413,-0.37794 -4.96093,-0.64258 -0.21667,-0.26107 -0.30655,-3.48398 -0.25,-8.96289 l 0.0879,-8.55468 2.48047,-0.10743 c 0.52139,-0.0229 1.10616,-0.0287 1.74414,-0.0176 z m -2.53321,28.14843 c 0.79881,-0.007 2.02079,0.0639 3.9043,0.20899 6.58845,0.5075 11.38395,1.54523 16.40039,3.54883 12.29927,4.91242 23.82672,15.8126 29.58203,27.97656 1.62239,3.42897 3.3655,8.41488 3.83399,10.95898 0.82406,4.47537 1.29868,8.87808 1.21484,11.27539 l -0.0918,2.64454 -8.85156,0.0879 c -6.92181,0.0689 -8.87747,-0.002 -8.96679,-0.33008 -0.0628,-0.23028 -0.35331,-2.42805 -0.64454,-4.88281 -0.52257,-4.40483 -0.66172,-5.01323 -1.97461,-8.59571 -1.31428,-3.58626 -3.70805,-7.85542 -5.83984,-10.41406 -1.08167,-1.29826 -4.85966,-5.07104 -6.12695,-6.11914 -2.88471,-2.38577 -7.76203,-4.9631 -12.0625,-6.37305 -3.27787,-1.07468 -4.04117,-1.2269 -8.38282,-1.67969 l -3.68554,-0.38476 -0.0879,-8.62891 c -0.075,-7.34469 -0.0144,-8.69034 0.4082,-9.04101 0.19568,-0.1624 0.57229,-0.24531 1.37109,-0.25196 z m 9.85157,32.97461 c 2.9783,0 3.74757,0.11675 5.3164,0.81055 2.30312,1.01856 4.94865,3.68839 6.06836,6.12305 0.73633,1.60112 0.84087,2.27481 0.84571,5.46289 0.005,3.3533 -0.0642,3.76726 -0.90625,5.30664 -1.27538,2.33165 -3.52255,4.53384 -6.03711,5.91601 -2.38879,1.31305 -4.08883,1.46137 -7.94922,0.69336 -3.49575,-0.69546 -6.88194,-3.27157 -8.45508,-6.43164 -0.66489,-1.33555 -0.75586,-2.00817 -0.75586,-5.64843 0,-3.73225 0.0781,-4.28697 0.80859,-5.7168 1.127,-2.20591 3.59847,-4.63277 5.75782,-5.6543 1.60594,-0.75973 2.23952,-0.86133 5.30664,-0.86133 z"
       id="rect3389-0"
       transform="translate(235.65805,326.99308)"
       inkscape:connector-curvature="0" />
    <image
       sodipodi:absref="C:\Users\Vincent\Documents\Visual Studio 2015\Projects\SimpleRSSLiveTile\SimpleRSSLiveTile\OldAssets\SplashScreen.scale-200.png"
       y="-367.6546"
       x="953.28003"
       id="image3510"
       xlink:href="file:///C:/Users/Vincent/Documents/Visual%20Studio%202015/Projects/SimpleRSSLiveTile/SimpleRSSLiveTile/OldAssets/SplashScreen.scale-200.png"
       preserveAspectRatio="none"
       height="750"
       width="1550" />
  </g>
</svg>
