<?xml version="1.0" encoding="UTF-8" standalone="no"?>
<!-- Created with Inkscape (http://www.inkscape.org/) -->

<svg
   xmlns:dc="http://purl.org/dc/elements/1.1/"
   xmlns:cc="http://creativecommons.org/ns#"
   xmlns:rdf="http://www.w3.org/1999/02/22-rdf-syntax-ns#"
   xmlns:svg="http://www.w3.org/2000/svg"
   xmlns="http://www.w3.org/2000/svg"
   xmlns:xlink="http://www.w3.org/1999/xlink"
   xmlns:sodipodi="http://sodipodi.sourceforge.net/DTD/sodipodi-0.dtd"
   xmlns:inkscape="http://www.inkscape.org/namespaces/inkscape"
   width="86.327118mm"
   height="86.961662mm"
   viewBox="0 0 305.88346 308.1319"
   id="svg2"
   version="1.1"
   inkscape:version="0.92.3 (2405546, 2018-03-11)"
   sodipodi:docname="_vectorlogo.svg">
  <defs
     id="defs4" />
  <sodipodi:namedview
     id="base"
     pagecolor="#ffffff"
     bordercolor="#666666"
     borderopacity="1.0"
     inkscape:pageopacity="0.0"
     inkscape:pageshadow="2"
     inkscape:zoom="0.95059608"
     inkscape:cx="145.12976"
     inkscape:cy="192.08844"
     inkscape:document-units="px"
     inkscape:current-layer="layer1"
     showgrid="false"
     inkscape:window-width="1600"
     inkscape:window-height="877"
     inkscape:window-x="-8"
     inkscape:window-y="-8"
     inkscape:window-maximized="1"
     fit-margin-top="0"
     fit-margin-left="0"
     fit-margin-right="0"
     fit-margin-bottom="0" />
  <metadata
     id="metadata7">
    <rdf:RDF>
      <cc:Work
         rdf:about="">
        <dc:format>image/svg+xml</dc:format>
        <dc:type
           rdf:resource="http://purl.org/dc/dcmitype/StillImage" />
        <dc:title></dc:title>
      </cc:Work>
    </rdf:RDF>
  </metadata>
  <g
     inkscape:label="Calque 1"
     inkscape:groupmode="layer"
     id="layer1"
     transform="translate(-273.0922,-361.3378)">
    <path
       style="fill:#000000"
       d=""
       id="path3377"
       inkscape:connector-curvature="0" />
    <path
       style="fill:#000000"
       d=""
       id="path3375"
       inkscape:connector-curvature="0" />
    <image
       sodipodi:absref="C:\Users\Vincent\Source\Repos\SimpleRSSLiveTile\SimpleRSSLiveTile\Assets\SplashScreen.scale-200.png"
       xlink:href="SplashScreen.scale-200.png"
       y="-367.6546"
       x="953.28003"
       id="image3510"
       preserveAspectRatio="none"
       height="750"
       width="1550" />
    <path
       style="fill:#fffff6;fill-opacity:1;stroke-width:0.93750018"
       d="m 273.66805,596.43905 c 0,-65.72945 0.14811,-73.08738 1.48291,-73.59957 0.8156,-0.31287 33.03741,-0.56905 71.60397,-0.56905 57.97758,0 70.30428,0.22075 71.17919,1.27499 0.77028,0.92813 0.99277,20.88496 0.81791,73.35939 l -0.24024,72.0844 -72.42187,0.24024 -72.42191,0.24023 z m 41.24998,37.43282 c 0,-0.97352 -0.96729,-2.96259 -2.14955,-4.42013 -6.61315,-8.1529 -9.10045,-15.52518 -9.10045,-26.97343 0,-12.87023 3.96287,-22.44574 13.05,-31.53287 8.59943,-8.59942 18.09004,-12.46988 30.54377,-12.45638 12.66173,0.0142 22.97835,4.70919 31.72741,14.44028 5.45091,6.06271 8.29704,11.48967 10.33867,19.71351 1.92202,7.74215 1.92224,11.82344 9.1e-4,19.56769 -1.7579,7.08626 -4.15346,12.21491 -7.97318,17.06981 -3.14349,3.99543 -3.38308,5.98947 -0.88065,7.32873 2.50433,1.34029 3.85221,0.58929 7.06407,-3.93587 7.35648,-10.36446 9.41231,-17.208 9.36784,-31.18401 -0.0283,-9.37636 -0.38335,-12.12522 -2.12273,-16.50496 -5.56033,-14.00089 -18.6075,-26.78585 -32.05375,-31.4095 -3.97991,-1.36854 -7.72281,-1.76252 -16.40625,-1.72687 -10.63368,0.0436 -11.66089,0.22004 -18.75002,3.22207 -6.40704,2.71308 -8.66462,4.34576 -15.49187,11.2038 -9.79735,9.84156 -13.56459,16.85806 -15.07429,28.07606 -1.97376,14.6662 2.4187,31.0709 10.65224,39.78343 2.91948,3.0893 3.65078,3.4391 5.32117,2.54512 1.06522,-0.57001 1.93666,-1.83292 1.93666,-2.80648 z m 12.97467,-12.58185 c 0.1839,-0.96892 -0.83643,-4.07591 -2.2675,-6.90439 -3.1039,-6.1347 -3.93088,-13.51173 -2.20943,-19.70914 1.60296,-5.77091 9.90269,-14.30656 15.51727,-15.95834 5.27928,-1.5531 11.36683,-1.42367 16.5796,0.35256 5.5907,1.90492 13.27405,10.0394 14.80358,15.67276 1.6729,6.16151 0.4916,16.09372 -2.4413,20.52562 -2.63728,3.98519 -2.73448,6.09555 -0.35008,7.59699 2.60636,1.64115 4.56645,-0.045 7.6707,-6.59838 2.65113,-5.5968 3.00249,-7.27615 2.99402,-14.30969 -0.007,-6.94834 -0.36361,-8.67041 -2.77391,-13.44849 -3.17154,-6.28714 -10.28229,-13.16354 -16.27859,-15.74214 -2.95661,-1.27148 -6.34568,-1.74685 -12.45303,-1.74685 -7.1229,0 -9.09971,0.35914 -13.08097,2.3766 -6.64207,3.36579 -11.37993,7.97 -14.79536,14.37807 -2.68554,5.03851 -2.95228,6.30524 -2.95228,14.01862 0,8.9804 0.57451,11.33185 4.34849,17.79764 1.96681,3.36969 2.77224,3.99164 4.85606,3.74999 1.55916,-0.18071 2.62386,-0.95188 2.83259,-2.05136 z m 24.64165,-8.14143 c 5.13255,-2.61843 8.08855,-8.89111 6.57329,-13.94858 -1.49959,-5.00519 -5.69834,-8.61064 -10.68172,-9.17237 -13.72748,-1.54726 -19.29147,16.81054 -7.07014,23.32717 4.08161,2.17641 6.5993,2.12996 11.17857,-0.20622 z m -9.90691,-7.64925 c -1.88015,-2.68431 -1.83834,-3.80321 0.23775,-6.36725 3.29758,-4.07228 9.55273,-1.89279 9.55273,3.32847 0,4.73475 -7.06646,6.92802 -9.79059,3.03878 z m 91.26762,-97.86327 c 0,0 -0.76667,-30.16569 -0.62348,-73.125 l 0.24023,-72.0844 h 72.18751 72.18748 l -0.32209,145.07196 -143.66982,0.13748 z m 39.27298,-32.42813 c 1.70157,-1.70156 1.36963,-3.53356 -1.26652,-6.98974 -1.31535,-1.72449 -3.7052,-5.77212 -5.31078,-8.99472 -2.54551,-5.1092 -2.97524,-7.09069 -3.35675,-15.47816 -0.37637,-8.27394 -0.13925,-10.50229 1.69653,-15.93687 4.0392,-11.95796 12.05522,-21.22282 22.98207,-26.56244 6.37898,-3.11726 6.82062,-3.19433 18.30409,-3.19433 11.70971,0 11.8023,0.0177 18.88561,3.51804 17.12906,8.46564 27.20828,27.815 24.20551,46.46803 -1.25253,7.7809 -3.10178,12.13661 -8.18717,19.28406 -2.79035,3.92184 -3.11506,4.90192 -2.25163,6.79688 1.36761,3.00157 3.44785,2.78295 6.62567,-0.69633 6.2877,-6.88415 11.2984,-21.39258 11.2984,-32.71443 0,-13.84587 -4.96822,-25.33299 -15.48135,-35.79456 -15.17223,-15.09786 -37.54215,-19.06534 -56.49527,-10.01987 -8.2575,3.94093 -20.31413,15.80761 -24.0086,23.63031 -2.95257,6.25178 -5.22471,15.9305 -5.24852,22.35721 -0.039,10.54938 4.69722,23.94436 11.29797,31.95223 3.03917,3.68706 4.46273,4.2227 6.31074,2.37469 z M 487.6523,460.3753 c 0.64779,-1.03574 0.0383,-2.79968 -2.22491,-6.44067 -4.19935,-6.75539 -4.84987,-15.20979 -1.72857,-22.46545 2.51717,-5.85128 9.43732,-12.4306 14.74817,-14.02175 5.43217,-1.62752 12.61169,-1.36368 17.25271,0.63396 5.01548,2.15883 12.30488,9.80678 13.87156,14.55385 0.67588,2.04793 1.01374,6.3753 0.80107,10.26029 -0.29056,5.30532 -0.9028,7.55288 -2.91108,10.68442 -3.20659,5.00013 -3.28372,7.5314 -0.25264,8.29215 3.00062,0.7531 3.63838,0.27674 6.69778,-5.00113 2.26633,-3.90979 2.62615,-5.65809 2.99193,-14.53734 0.39561,-9.60413 0.28878,-10.34408 -2.20624,-15.27541 -3.0824,-6.09229 -8.66959,-11.53403 -15.28317,-14.8854 -4.02428,-2.03924 -5.98557,-2.40101 -12.9752,-2.39322 -9.99666,0.0106 -15.74504,2.29599 -22.32149,8.87241 -6.57617,6.57616 -8.86128,12.3249 -8.87241,22.32042 -0.0106,8.56467 1.04574,12.45413 4.95822,18.27465 2.23069,3.31859 5.75118,3.85143 7.45438,1.12822 z m 23.56278,-7.84254 c 4.61317,-1.92753 7.14047,-6.03627 7.14047,-11.60873 0,-5.2071 -2.07985,-8.67929 -6.5987,-11.01607 -11.10869,-5.74451 -22.44412,7.24472 -15.76017,18.05953 3.26934,5.28998 9.21512,7.07361 15.2184,4.56527 z m -9.1958,-7.9975 c -2.16199,-2.38893 -1.57135,-5.56363 1.4536,-7.81327 2.10083,-1.56246 2.78692,-1.65859 4.68748,-0.65686 2.75071,1.44982 3.59986,2.67027 3.61836,5.20062 0.0319,4.50521 -6.62315,6.73505 -9.75944,3.26951 z"
       id="path5114-2"
       inkscape:connector-curvature="0"
       sodipodi:nodetypes="scscscccsscssccscccscsccccsccsccccccscscscsscscccccscccccsccsscccccscccccscscccssscccscccsccccccscccscccccccccccsccc" />
    <rect
       style="fill:#fffff6;fill-opacity:1;stroke:none;stroke-width:12.40157509;stroke-miterlimit:4;stroke-dasharray:none;stroke-dashoffset:0;stroke-opacity:1"
       id="rect5116-0"
       width="69.072777"
       height="70.41394"
       x="349.8728"
       y="362.58344" />
    <rect
       style="fill:#fffff6;fill-opacity:1;stroke:none;stroke-width:12.40157509;stroke-miterlimit:4;stroke-dasharray:none;stroke-dashoffset:0;stroke-opacity:1"
       id="rect5116-7-8"
       width="69.072777"
       height="70.41394"
       x="273.66803"
       y="438.87939" />
    <rect
       style="fill:#fffff6;fill-opacity:1;stroke:none;stroke-width:12.40157509;stroke-miterlimit:4;stroke-dasharray:none;stroke-dashoffset:0;stroke-opacity:1"
       id="rect5116-8-4"
       width="69.072777"
       height="70.41394"
       x="431.72095"
       y="598.35809" />
    <rect
       style="fill:#fffff6;fill-opacity:1;stroke:none;stroke-width:12.40157509;stroke-miterlimit:4;stroke-dasharray:none;stroke-dashoffset:0;stroke-opacity:1"
       id="rect5116-9-7"
       width="69.072777"
       height="70.41394"
       x="509.0647"
       y="522.0188" />
    <rect
       style="fill:none;fill-opacity:1;stroke:#fffff6;stroke-width:11.55272865;stroke-miterlimit:4;stroke-dasharray:none;stroke-dashoffset:0;stroke-opacity:1"
       id="rect5145-8"
       width="135.17923"
       height="136.68729"
       x="278.86856"
       y="526.53351" />
    <rect
       style="fill:none;fill-opacity:1;stroke:#fffff6;stroke-width:11.55272865;stroke-miterlimit:4;stroke-dasharray:none;stroke-dashoffset:0;stroke-opacity:1"
       id="rect5145-9-7"
       width="135.17923"
       height="136.68729"
       x="438.02011"
       y="367.11417" />
  </g>
</svg>
