<?xml version="1.0" encoding="UTF-8" standalone="no"?>
<!-- Created with Inkscape (http://www.inkscape.org/) -->

<svg
   xmlns:dc="http://purl.org/dc/elements/1.1/"
   xmlns:cc="http://creativecommons.org/ns#"
   xmlns:rdf="http://www.w3.org/1999/02/22-rdf-syntax-ns#"
   xmlns:svg="http://www.w3.org/2000/svg"
   xmlns="http://www.w3.org/2000/svg"
   xmlns:xlink="http://www.w3.org/1999/xlink"
   xmlns:sodipodi="http://sodipodi.sourceforge.net/DTD/sodipodi-0.dtd"
   xmlns:inkscape="http://www.inkscape.org/namespaces/inkscape"
   width="51.337833mm"
   height="51.195068mm"
   viewBox="0 0 181.90571 181.39985"
   id="svg2"
   version="1.1"
   inkscape:version="0.91 r13725"
   sodipodi:docname="vectorlog_small.svg">
  <defs
     id="defs4" />
  <sodipodi:namedview
     id="base"
     pagecolor="#ffffff"
     bordercolor="#666666"
     borderopacity="1.0"
     inkscape:pageopacity="0.0"
     inkscape:pageshadow="2"
     inkscape:zoom="1.3443459"
     inkscape:cx="295.03452"
     inkscape:cy="-14.970767"
     inkscape:document-units="px"
     inkscape:current-layer="layer1"
     showgrid="false"
     inkscape:window-width="1600"
     inkscape:window-height="877"
     inkscape:window-x="-8"
     inkscape:window-y="-8"
     inkscape:window-maximized="1"
     fit-margin-top="5"
     fit-margin-left="5"
     fit-margin-right="5"
     fit-margin-bottom="5" />
  <metadata
     id="metadata7">
    <rdf:RDF>
      <cc:Work
         rdf:about="">
        <dc:format>image/svg+xml</dc:format>
        <dc:type
           rdf:resource="http://purl.org/dc/dcmitype/StillImage" />
        <dc:title></dc:title>
      </cc:Work>
    </rdf:RDF>
  </metadata>
  <g
     inkscape:label="Calque 1"
     inkscape:groupmode="layer"
     id="layer1"
     transform="translate(-277.07332,-344.7121)">
    <path
       style="fill:#000000"
       d=""
       id="path3377"
       inkscape:connector-curvature="0" />
    <path
       style="fill:#000000"
       d=""
       id="path3375"
       inkscape:connector-curvature="0" />
    <path
       style="fill:#ffffff;fill-opacity:1"
       d="m 294.78986,362.42863 0,145.96679 146.47265,0 0,-145.96679 -146.47265,0 z m 39.4707,27.70117 c 4.46581,0.0777 11.54261,0.95868 17.79688,2.25195 1.9727,0.40792 9.96924,3.05305 12.06249,3.99024 10.26767,4.59701 17.9827,9.90372 25.94727,17.84179 14.45817,14.4101 22.10743,30.12325 24.25781,49.83594 0.69454,6.3669 0.68916,10.86778 -0.0117,11.13672 -0.28763,0.11037 -4.21199,0.20117 -8.7207,0.20117 -6.16297,0 -8.27897,-0.10338 -8.52539,-0.41406 -0.18025,-0.2273 -0.42953,-2.4658 -0.55469,-4.97461 -0.34587,-6.93293 -1.63826,-12.87716 -4.2793,-19.68555 -2.85081,-7.34918 -7.08478,-14.07105 -12.93554,-20.5332 -11.65839,-12.87666 -27.44323,-20.51775 -44.13869,-21.36523 -3.00063,-0.15232 -4.74131,-0.37794 -4.96094,-0.64258 -0.21667,-0.26108 -0.30655,-3.48398 -0.25,-8.96289 l 0.0879,-8.55469 2.48047,-0.10742 c 0.52139,-0.0229 1.10617,-0.0287 1.74414,-0.0176 z m -2.5332,28.14844 c 0.7988,-0.007 2.02078,0.0639 3.90429,0.20898 6.58846,0.5075 11.38396,1.54523 16.4004,3.54883 12.29926,4.91242 23.82476,15.8126 29.58007,27.97656 1.62239,3.42897 3.36745,8.41489 3.83594,10.95899 0.82406,4.47537 1.29868,8.87808 1.21484,11.27539 l -0.0937,2.64453 -8.85156,0.0879 c -6.92181,0.0689 -8.87748,-0.002 -8.9668,-0.33008 -0.0628,-0.23028 -0.35135,-2.42805 -0.64258,-4.88281 -0.52256,-4.40483 -0.66171,-5.01323 -1.9746,-8.59571 -1.31428,-3.58626 -3.71001,-7.85542 -5.8418,-10.41406 -1.08167,-1.29826 -4.85771,-5.07104 -6.125,-6.11914 -2.88471,-2.38577 -7.76398,-4.9631 -12.06445,-6.37305 -3.27787,-1.07468 -4.03921,-1.2269 -8.38086,-1.67968 l -3.68555,-0.38477 -0.0879,-8.62891 c -0.075,-7.34468 -0.0144,-8.69034 0.4082,-9.04101 0.19568,-0.1624 0.57229,-0.24531 1.3711,-0.25195 z m 9.84961,32.97461 c 2.9783,0 3.74757,0.11674 5.3164,0.81054 2.30312,1.01856 4.95061,3.68839 6.07032,6.12305 0.73633,1.60112 0.84086,2.27481 0.8457,5.46289 0.005,3.3533 -0.0662,3.76726 -0.9082,5.30664 -1.27538,2.33165 -3.52255,4.53385 -6.03711,5.91602 -2.38879,1.31305 -4.08688,1.46137 -7.94727,0.69336 -3.49575,-0.69546 -6.88389,-3.27158 -8.45703,-6.43165 -0.66489,-1.33555 -0.75391,-2.00817 -0.75391,-5.64843 0,-3.73225 0.0781,-4.28697 0.8086,-5.7168 1.127,-2.20591 3.59846,-4.63277 5.75781,-5.6543 1.60594,-0.75973 2.23757,-0.86132 5.30469,-0.86132 z"
       id="rect3389"
       inkscape:connector-curvature="0" />
    <image
       sodipodi:absref="C:\Users\Vincent\Documents\Visual Studio 2015\Projects\SimpleRSSLiveTile\SimpleRSSLiveTile\OldAssets\SplashScreen.scale-200.png"
       y="-367.6546"
       x="953.28003"
       id="image3510"
       xlink:href="file:///C:/Users/Vincent/Documents/Visual%20Studio%202015/Projects/SimpleRSSLiveTile/SimpleRSSLiveTile/OldAssets/SplashScreen.scale-200.png"
       preserveAspectRatio="none"
       height="750"
       width="1550" />
  </g>
</svg>
